<svg id="Layer_1" data-name="Layer 1" xmlns="http://www.w3.org/2000/svg" xmlns:xlink="http://www.w3.org/1999/xlink" viewBox="215 415 600 200"><defs><style>.cls-1{fill:url(#linear-gradient);}.cls-2{fill:url(#linear-gradient-2);}.cls-3{fill:url(#linear-gradient-3);}.cls-4{fill:url(#linear-gradient-4);}.cls-5{fill:#046bca;}.cls-6{fill:#000a63;}</style><linearGradient id="linear-gradient" x1="-6724.12" y1="512" x2="-6595.91" y2="512" gradientTransform="matrix(-1, 0, 0, 1, -6326.56, 0)" gradientUnits="userSpaceOnUse"><stop offset="0" stop-color="#000a63"/><stop offset="1" stop-color="#006ac7"/></linearGradient><linearGradient id="linear-gradient-2" x1="256.63" y1="553.1" x2="293.21" y2="553.1" gradientTransform="matrix(1, 0, 0, 1, 0, 0)" xlink:href="#linear-gradient"/><linearGradient id="linear-gradient-3" x1="-4298.91" y1="1719.15" x2="-4294.19" y2="1740.93" gradientTransform="matrix(-0.91, 0.42, 0.42, 0.91, -4381.62, 746.6)" xlink:href="#linear-gradient"/><linearGradient id="linear-gradient-4" x1="-4210.08" y1="1776.92" x2="-4203.78" y2="1805.95" gradientTransform="matrix(-0.9, 0.44, 0.44, 0.9, -4317.13, 726.87)" xlink:href="#linear-gradient"/></defs><path class="cls-1" d="M377,434.05c15.22,36.82,5.23,80.7-23.88,107.48,26.48,6.38,47.05,34.55,44.16,62.62a97.15,97.15,0,0,1-101.62-25.68,97.8,97.8,0,0,0-26.29-66.1c-1.4-52.11,45.13-98.75,97.27-97.52A97.4,97.4,0,0,1,377,434.05Z"/><path class="cls-2" d="M293.21,579a97.57,97.57,0,0,1-2.43,22.86c-1.62-38.1-34.06-58.69-34.15-97.49a92.81,92.81,0,0,1,10.28,9.47A97.89,97.89,0,0,1,293.21,579Z"/><path class="cls-3" d="M234.32,478.73l3.64,2.21a47.91,47.91,0,0,0,12.39,19.64,15.09,15.09,0,0,1,3.25,3.82A47.91,47.91,0,0,1,234.32,478.73Z"/><path class="cls-4" d="M256.13,504c-.59-.51-1.16-1-1.72-1.57A48.2,48.2,0,0,1,246.69,466l2.8,3.4A48.26,48.26,0,0,0,256.13,504Z"/><path class="cls-5" d="M441.9,553.86a14.56,14.56,0,0,1,1.2-5.89,15.35,15.35,0,0,1,8.08-8.08,14.61,14.61,0,0,1,5.9-1.2h23.21v10.13H457.08a5.17,5.17,0,0,0-2,.38,5.06,5.06,0,0,0-1.61,1.08,4.78,4.78,0,0,0-1.07,1.61,5,5,0,0,0-.39,2,5.17,5.17,0,0,0,.39,2,4.82,4.82,0,0,0,1.07,1.62,5.06,5.06,0,0,0,1.61,1.08,5,5,0,0,0,2,.38H467.2a14.82,14.82,0,0,1,5.91,1.19,15.05,15.05,0,0,1,8.09,8.08,15.34,15.34,0,0,1,0,11.8,15.23,15.23,0,0,1-3.25,4.82,15.4,15.4,0,0,1-4.84,3.26,14.66,14.66,0,0,1-5.91,1.2H444.72V579.17H467.2a5,5,0,0,0,2-.39,5,5,0,0,0,2.68-2.69,5,5,0,0,0,.39-2,5,5,0,0,0-.39-2,5.16,5.16,0,0,0-1.07-1.6,5.06,5.06,0,0,0-1.61-1.08,5,5,0,0,0-2-.39H457.08a14.61,14.61,0,0,1-5.9-1.2,15.29,15.29,0,0,1-8.08-8.1A14.66,14.66,0,0,1,441.9,553.86Z"/><path class="cls-5" d="M524.51,570.06A20.42,20.42,0,0,1,523,578a19.84,19.84,0,0,1-4.13,6.31,19.34,19.34,0,0,1-6.13,4.2,19.11,19.11,0,0,1-15,0A19.39,19.39,0,0,1,487.42,578a20.42,20.42,0,0,1-1.51-7.89,20.64,20.64,0,0,1,1.51-8,19.59,19.59,0,0,1,4.15-6.34,19.33,19.33,0,0,1,6.14-4.18,18.73,18.73,0,0,1,7.5-1.52,19.83,19.83,0,0,1,7.53,1.43,18.34,18.34,0,0,1,6.13,4.06,19.35,19.35,0,0,1,4.13,6.32A21.39,21.39,0,0,1,524.51,570.06Zm-9.7,0a11.17,11.17,0,0,0-.76-4.22A10.08,10.08,0,0,0,512,562.6a9.06,9.06,0,0,0-3.06-2.09,10,10,0,0,0-7.44,0,8.79,8.79,0,0,0-3,2.09,10,10,0,0,0-2,3.24,11.57,11.57,0,0,0-.74,4.22,11,11,0,0,0,.74,4.06,10.28,10.28,0,0,0,2,3.25,9.59,9.59,0,0,0,3,2.17,8.84,8.84,0,0,0,3.72.79,9.41,9.41,0,0,0,6.78-2.82,9.92,9.92,0,0,0,2.06-3.25A11.17,11.17,0,0,0,514.81,570.06Z"/><path class="cls-5" d="M541.66,589.29H532V561.1h-4.69v-9.6H532v-1.8a16.39,16.39,0,0,1,1.32-6.56,16.86,16.86,0,0,1,3.64-5.35,17.28,17.28,0,0,1,5.38-3.6,16.43,16.43,0,0,1,6.56-1.32h7.24v9.59h-7.24a7.52,7.52,0,0,0-2.87.55,7,7,0,0,0-2.3,1.52,7.27,7.27,0,0,0-2.1,5.17v1.8h11.83v9.6H541.66Z"/><path class="cls-5" d="M577,589.29a16.48,16.48,0,0,1-6.57-1.32,17,17,0,0,1-9-9,16.4,16.4,0,0,1-1.33-6.56V561.17h-4.69v-9.6h4.69v-15.1h9.6v15.1h14.61v9.6H569.68v11.22a7.27,7.27,0,0,0,2.12,5.15,7.53,7.53,0,0,0,2.33,1.57,7.07,7.07,0,0,0,2.86.58h7.3v9.6Z"/><path class="cls-5" d="M637.4,575.64a13.9,13.9,0,0,1-1.13,5.59,14.33,14.33,0,0,1-3.08,4.57,14.79,14.79,0,0,1-4.59,3.07,14.45,14.45,0,0,1-15.26-2.54,13.87,13.87,0,0,1-4.43,2.73,14.28,14.28,0,0,1-5.17.94,14,14,0,0,1-5.61-1.13,14.7,14.7,0,0,1-4.57-3.07,14.29,14.29,0,0,1-4.22-10.16V551.57H599v24.07a4.71,4.71,0,0,0,1.4,3.37,4.91,4.91,0,0,0,1.51,1,4.64,4.64,0,0,0,1.86.37,4.73,4.73,0,0,0,1.87-.37,5.09,5.09,0,0,0,1.55-1,4.53,4.53,0,0,0,1-1.52,4.6,4.6,0,0,0,.37-1.85V551.57h9.6v24.07a4.45,4.45,0,0,0,.39,1.85,5,5,0,0,0,1,1.52,5,5,0,0,0,1.52,1,4.56,4.56,0,0,0,1.85.37,4.73,4.73,0,0,0,1.87-.37,4.93,4.93,0,0,0,1.54-1,5.2,5.2,0,0,0,1-1.52,4.45,4.45,0,0,0,.39-1.85V551.57h9.59Z"/><path class="cls-5" d="M681,589.29h-2.33l-3.74-5.18a31.53,31.53,0,0,1-2.92,2.31,21.09,21.09,0,0,1-3.22,1.87,19.3,19.3,0,0,1-3.48,1.25,14.26,14.26,0,0,1-3.62.46,20.92,20.92,0,0,1-7.5-1.34,18.07,18.07,0,0,1-6.14-3.9,18.3,18.3,0,0,1-4.14-6.26,22.2,22.2,0,0,1-1.52-8.44,21.13,21.13,0,0,1,1.52-8.1,19.2,19.2,0,0,1,4.14-6.33,18.61,18.61,0,0,1,6.14-4.11,19.22,19.22,0,0,1,7.5-1.47,14.47,14.47,0,0,1,3.64.46,19.2,19.2,0,0,1,3.49,1.27,21.42,21.42,0,0,1,3.23,1.91,27.4,27.4,0,0,1,2.88,2.36l3.74-4.48H681Zm-9.71-19.23a10,10,0,0,0-.76-3.83,10.9,10.9,0,0,0-2.06-3.28,10.23,10.23,0,0,0-3.05-2.29,8.28,8.28,0,0,0-3.73-.87,10.23,10.23,0,0,0-3.72.67,8.6,8.6,0,0,0-3,2,9.35,9.35,0,0,0-2,3.23,13.39,13.39,0,0,0,0,8.78,9.25,9.25,0,0,0,2,3.23,8.6,8.6,0,0,0,3,2,10.23,10.23,0,0,0,3.72.67,8.4,8.4,0,0,0,3.73-.86,10.44,10.44,0,0,0,3.05-2.3,10.9,10.9,0,0,0,2.06-3.28A9.91,9.91,0,0,0,671.28,570.06Z"/><path class="cls-5" d="M698,589.29h-9.63V551.5h2.33l3.17,4.48a17.07,17.07,0,0,1,11.44-4.41h8.5v9.6h-8.5a7.3,7.3,0,0,0-5.19,2.11,7.15,7.15,0,0,0-1.55,2.33,7.27,7.27,0,0,0-.57,2.86Z"/><path class="cls-5" d="M732.58,580.05a5.67,5.67,0,0,0,1.13.23c.37,0,.75.05,1.13.05a9.52,9.52,0,0,0,2.72-.39,10,10,0,0,0,2.45-1.11,9,9,0,0,0,2-1.76,9.63,9.63,0,0,0,1.47-2.31l7.06,7.09a19.41,19.41,0,0,1-6.87,6,18.75,18.75,0,0,1-4.27,1.6,19.2,19.2,0,0,1-18.24-5.06,19.52,19.52,0,0,1-4.15-6.3,20.77,20.77,0,0,1-1.52-8,21.45,21.45,0,0,1,1.52-8.19,18.55,18.55,0,0,1,10.29-10.37,19.39,19.39,0,0,1,7.5-1.45,19.43,19.43,0,0,1,8.91,2.19,19.71,19.71,0,0,1,3.79,2.59,19.51,19.51,0,0,1,3.11,3.44Zm4.94-19.87a5.51,5.51,0,0,0-1.32-.32c-.44,0-.89-.07-1.36-.07a9.63,9.63,0,0,0-3.72.72,8.88,8.88,0,0,0-3,2.07,9.6,9.6,0,0,0-2,3.23,11.66,11.66,0,0,0-.74,4.25c0,.35,0,.75.05,1.2s.1.9.18,1.36a12.76,12.76,0,0,0,.3,1.32,4.85,4.85,0,0,0,.46,1.13Z"/><path class="cls-5" d="M776.23,589.29h-22v-9.6h22a2.39,2.39,0,0,0,2.4-2.39,1.33,1.33,0,0,0-.7-1.35,4.16,4.16,0,0,0-1.7-.31h-10a11.54,11.54,0,0,1-4.69-1,12.05,12.05,0,0,1-6.37-6.42,12.2,12.2,0,0,1,0-9.39,11.86,11.86,0,0,1,6.37-6.36,11.69,11.69,0,0,1,4.69-.94h19.52v9.6H766.21a2.3,2.3,0,0,0-1.69.7,2.33,2.33,0,0,0-.71,1.7,2.4,2.4,0,0,0,.71,1.74,2.25,2.25,0,0,0,1.69.73h10a13.1,13.1,0,0,1,4.66.83,11.65,11.65,0,0,1,3.81,2.31,10.82,10.82,0,0,1,3.53,8.12,11.57,11.57,0,0,1-1,4.67,12.57,12.57,0,0,1-2.58,3.81,11.82,11.82,0,0,1-8.47,3.51Z"/><path class="cls-6" d="M503.5,503.37H489.12V489H460.36v14.38H446V460.28a27.87,27.87,0,0,1,2.26-11.19,29.41,29.41,0,0,1,6.13-9.15,28.79,28.79,0,0,1,9.12-6.16,28.88,28.88,0,0,1,22.4,0,28.8,28.8,0,0,1,15.3,15.31,27.87,27.87,0,0,1,2.26,11.19Zm-14.38-28.71V460.28A14,14,0,0,0,488,454.7a14.33,14.33,0,0,0-7.66-7.67,14.51,14.51,0,0,0-11.18,0,14.33,14.33,0,0,0-7.66,7.67,14,14,0,0,0-1.13,5.58v14.38Z"/><path class="cls-6" d="M582.76,503.37H569.13V469.3a6.77,6.77,0,0,0-.52-2.65,6.85,6.85,0,0,0-3.69-3.69,6.77,6.77,0,0,0-2.65-.52,6.6,6.6,0,0,0-2.63.52,6.87,6.87,0,0,0-2.16,1.48,7,7,0,0,0-1.45,2.21,6.78,6.78,0,0,0-.53,2.65v34.07H541.83V469.3a6.87,6.87,0,0,0-2-4.86,7,7,0,0,0-2.2-1.48,6.82,6.82,0,0,0-2.66-.52,6.64,6.64,0,0,0-2.63.52,6.83,6.83,0,0,0-2.15,1.48,7,7,0,0,0-1.45,2.21,6.6,6.6,0,0,0-.53,2.65v34.07H514.52V449.71h3.31l3.71,4.11a22,22,0,0,1,6.28-3.73,19.54,19.54,0,0,1,7.14-1.33,20.06,20.06,0,0,1,7.34,1.4,14.91,14.91,0,0,1,6.29,4.86,13.81,13.81,0,0,1,2.86-2.9,15.73,15.73,0,0,1,3.38-2,16.18,16.18,0,0,1,3.68-1.07,22,22,0,0,1,3.76-.33,20,20,0,0,1,8,1.6,20.49,20.49,0,0,1,12.5,18.94Z"/><path class="cls-6" d="M646,476.07a29.81,29.81,0,0,1-2.16,11.52,27.33,27.33,0,0,1-5.86,8.94,26.16,26.16,0,0,1-8.69,5.79,27.82,27.82,0,0,1-10.7,2.05,27.08,27.08,0,0,1-19.36-8,27.6,27.6,0,0,1-5.89-9,29.29,29.29,0,0,1-2.15-11.39v-47.7H605v25.05a12.58,12.58,0,0,1,2.68-2.5,15.91,15.91,0,0,1,3.41-1.81,22.1,22.1,0,0,1,3.78-1.08,20.3,20.3,0,0,1,3.81-.37,27,27,0,0,1,10.7,2.13,26.69,26.69,0,0,1,8.69,5.93,28.24,28.24,0,0,1,5.86,9A29.2,29.2,0,0,1,646,476.07Zm-13.78,0a15.37,15.37,0,0,0-1.08-5.79,14.55,14.55,0,0,0-2.93-4.64,13.34,13.34,0,0,0-4.33-3.05,12.83,12.83,0,0,0-5.29-1.1,11.83,11.83,0,0,0-5.28,1.22A14.65,14.65,0,0,0,609,466a15.31,15.31,0,0,0-2.9,4.66,14.52,14.52,0,0,0-1.06,5.44,15.53,15.53,0,0,0,1.06,5.76,14.38,14.38,0,0,0,2.9,4.61,13.78,13.78,0,0,0,4.34,3.08,12.92,12.92,0,0,0,10.57,0,13.74,13.74,0,0,0,4.33-3.08,14.63,14.63,0,0,0,2.93-4.61A15.14,15.14,0,0,0,632.26,476.07Z"/><path class="cls-6" d="M669.74,435.13a8.82,8.82,0,0,1-.73,3.56,9.36,9.36,0,0,1-2,2.88,9.5,9.5,0,0,1-2.93,1.95,9.17,9.17,0,0,1-7.17,0,9.25,9.25,0,0,1-2.9-1.95,9.48,9.48,0,0,1-2-2.88,9.09,9.09,0,0,1,0-7.09,9.38,9.38,0,0,1,2-2.91,9.6,9.6,0,0,1,2.9-1.95,9.17,9.17,0,0,1,7.17,0,9.87,9.87,0,0,1,2.93,1.95,9.26,9.26,0,0,1,2,2.91A8.89,8.89,0,0,1,669.74,435.13Zm-2.36,68.24H653.6V449.71h13.78Z"/><path class="cls-6" d="M729.66,476.07a28.79,28.79,0,0,1-2.16,11.19,27.89,27.89,0,0,1-5.86,9,27.41,27.41,0,0,1-8.69,6,27.23,27.23,0,0,1-21.35,0A27.48,27.48,0,0,1,677,487.26a28.79,28.79,0,0,1-2.15-11.19A29.31,29.31,0,0,1,677,464.74a27.78,27.78,0,0,1,5.89-9,27.39,27.39,0,0,1,8.71-5.94,26.71,26.71,0,0,1,10.65-2.15,28.18,28.18,0,0,1,10.7,2,25.78,25.78,0,0,1,8.69,5.76,27.25,27.25,0,0,1,5.86,9A30.26,30.26,0,0,1,729.66,476.07Zm-13.78,0a15.9,15.9,0,0,0-1.08-6,14.19,14.19,0,0,0-2.93-4.61,12.76,12.76,0,0,0-4.33-3,14.23,14.23,0,0,0-10.58,0,12.35,12.35,0,0,0-4.3,3,14.08,14.08,0,0,0-2.88,4.61,16.1,16.1,0,0,0-1.06,6,15.33,15.33,0,0,0,1.06,5.76,14.51,14.51,0,0,0,2.88,4.61,13.39,13.39,0,0,0,4.3,3.08,12.69,12.69,0,0,0,5.29,1.13,13.47,13.47,0,0,0,5.29-1.06,13.17,13.17,0,0,0,4.33-2.95A13.88,13.88,0,0,0,714.8,482,16,16,0,0,0,715.88,476.07Z"/><path class="cls-6" d="M750.9,503.37H737.22V449.71h3.31l4.51,5.21a24.1,24.1,0,0,1,16.23-6.26,23.24,23.24,0,0,1,9.27,1.88,24,24,0,0,1,7.61,5.16,24.28,24.28,0,0,1,5.14,7.66,23.56,23.56,0,0,1,1.88,9.35v30.66H771.49V472.71a10.11,10.11,0,0,0-.8-4,10.24,10.24,0,0,0-5.46-5.49,10,10,0,0,0-4-.8,10.43,10.43,0,0,0-4.06.8,10.15,10.15,0,0,0-3.3,2.2,10.35,10.35,0,0,0-2.21,3.29,10.11,10.11,0,0,0-.8,4Z"/></svg>